<svg xmlns="http://www.w3.org/2000/svg" xml:space="preserve" id="Www" x="0" y="0" enable-background="new 0 0 70 70" version="1.1" viewBox="0 0 70 70">
  <path fill="#c58452" d="M63.77,8.06v50.83c0,2.67-2.17,4.84-4.84,4.84H8.01c-2.67,0-4.84-2.17-4.84-4.84V8.06
						c0-2.67,2.17-4.84,4.84-4.84h50.92C61.6,3.21,63.77,5.39,63.77,8.06z" class="color5b52c5 svgShape"></path>
  <path d="M58.93,64.23H8.01c-2.95,0-5.34-2.4-5.34-5.34V8.06c0-2.95,2.4-5.34,5.34-5.34h50.92c2.95,0,5.35,2.4,5.35,5.34v50.83
						C64.27,61.83,61.88,64.23,58.93,64.23z M8.01,3.71c-2.4,0-4.34,1.95-4.34,4.34v50.83c0,2.4,1.95,4.34,4.34,4.34h50.92
						c2.4,0,4.35-1.95,4.35-4.34V8.06c0-2.4-1.95-4.34-4.35-4.34H8.01z" fill="#000000" class="color000000 svgShape"></path>
  <path fill="#efeeed" d="M66.83,11.12v50.83c0,2.67-2.17,4.84-4.84,4.84H11.07c-2.67,0-4.84-2.17-4.84-4.84V11.12
						c0-2.67,2.17-4.84,4.84-4.84h50.92C64.66,6.27,66.83,8.45,66.83,11.12z" class="colorefefed svgShape"></path>
  <path d="M61.99,67.29H11.07c-2.95,0-5.34-2.4-5.34-5.34V11.12c0-2.95,2.4-5.34,5.34-5.34h50.92c2.95,0,5.34,2.4,5.34,5.34
						v50.83C67.33,64.89,64.94,67.29,61.99,67.29z M11.07,6.77c-2.4,0-4.34,1.95-4.34,4.34v50.83c0,2.4,1.95,4.34,4.34,4.34h50.92
						c2.4,0,4.34-1.95,4.34-4.34V11.12c0-2.4-1.95-4.34-4.34-4.34H11.07z" fill="#000000" class="color000000 svgShape"></path>
  <path fill="#fbbe8f" d="M66.83,18.34v-7.22c0-2.67-2.17-4.84-4.84-4.84H11.07c-2.67,0-4.84,2.17-4.84,4.84v7.22H66.83z" class="color8f90fb svgShape"></path>
  <path d="M66.83,18.84H6.23c-0.28,0-0.5-0.22-0.5-0.5v-7.22c0-2.95,2.4-5.34,5.34-5.34h50.92c2.95,0,5.34,2.4,5.34,5.34v7.22
						C67.33,18.62,67.11,18.84,66.83,18.84z M6.73,17.84h59.61v-6.72c0-2.4-1.95-4.34-4.34-4.34H11.07c-2.4,0-4.34,1.95-4.34,4.34
						V17.84z" fill="#000000" class="color000000 svgShape"></path>
  <circle cx="11.75" cy="12.31" r="1.44" fill="#ffffff" class="colorffffff svgShape"></circle>
  <path d="M11.75,14.25c-1.07,0-1.95-0.87-1.95-1.94s0.87-1.94,1.95-1.94c1.07,0,1.94,0.87,1.94,1.94S12.82,14.25,11.75,14.25z
						 M11.75,11.36c-0.52,0-0.95,0.42-0.95,0.94s0.42,0.94,0.95,0.94c0.52,0,0.94-0.42,0.94-0.94S12.27,11.36,11.75,11.36z" fill="#000000" class="color000000 svgShape"></path>
  <g fill="#000000" class="color000000 svgShape">
    <circle cx="17" cy="12.31" r="1.44" fill="#ffffff" class="colorffffff svgShape"></circle>
    <path d="M17,14.25c-1.07,0-1.94-0.87-1.94-1.94s0.87-1.94,1.94-1.94c1.07,0,1.95,0.87,1.95,1.94S18.07,14.25,17,14.25z
						 M17,11.36c-0.52,0-0.94,0.42-0.94,0.94s0.42,0.94,0.94,0.94c0.52,0,0.95-0.42,0.95-0.94S17.52,11.36,17,11.36z" fill="#000000" class="color000000 svgShape"></path>
  </g>
  <g fill="#000000" class="color000000 svgShape">
    <circle cx="22.25" cy="12.31" r="1.44" fill="#ffffff" class="colorffffff svgShape"></circle>
    <path d="M22.25,14.25c-1.07,0-1.94-0.87-1.94-1.94s0.87-1.94,1.94-1.94c1.07,0,1.95,0.87,1.95,1.94S23.32,14.25,22.25,14.25z
						 M22.25,11.36c-0.52,0-0.94,0.42-0.94,0.94s0.42,0.94,0.94,0.94c0.52,0,0.95-0.42,0.95-0.94S22.77,11.36,22.25,11.36z" fill="#000000" class="color000000 svgShape"></path>
  </g>
  <g fill="#000000" class="color000000 svgShape">
    <path d="M62.75,12.81H40.06c-0.28,0-0.5-0.22-0.5-0.5s0.22-0.5,0.5-0.5h22.69c0.28,0,0.5,0.22,0.5,0.5S63.03,12.81,62.75,12.81
						z" fill="#000000" class="color000000 svgShape"></path>
  </g>
  <g fill="#000000" class="color000000 svgShape">
    <path fill="#ff7000" d="M60.69,30.08v4.97c0,2.08-1.68,3.76-3.76,3.76H15.51c-2.08,0-3.76-1.68-3.76-3.76v-4.97
				c0-2.08,1.68-3.76,3.76-3.76h41.42C59.01,26.32,60.69,28,60.69,30.08z" class="colorfbe063 svgShape"></path>
    <path d="M56.93,39.31H15.51c-2.35,0-4.26-1.91-4.26-4.26v-4.97c0-2.35,1.91-4.26,4.26-4.26h41.42c2.35,0,4.26,1.91,4.26,4.26
				v4.97C61.19,37.4,59.28,39.31,56.93,39.31z M15.51,26.82c-1.8,0-3.26,1.46-3.26,3.26v4.97c0,1.8,1.46,3.26,3.26,3.26h41.42
				c1.8,0,3.26-1.46,3.26-3.26v-4.97c0-1.8-1.46-3.26-3.26-3.26H15.51z" fill="#000000" class="color000000 svgShape"></path>
  </g>
  <g fill="#000000" class="color000000 svgShape">
    <path fill="#e29254" d="M60.69,30.08v4.97c0,2.08-1.68,3.76-3.76,3.76h-3.99c-2.08,0-3.76-1.68-3.76-3.76v-4.97
				c0-2.08,1.68-3.76,3.76-3.76h3.99C59.01,26.32,60.69,28,60.69,30.08z" class="color54e28e svgShape"></path>
    <path d="M56.93,39.31h-3.99c-2.35,0-4.26-1.91-4.26-4.26v-4.97c0-2.35,1.91-4.26,4.26-4.26h3.99c2.35,0,4.26,1.91,4.26,4.26v4.97
				C61.19,37.4,59.28,39.31,56.93,39.31z M52.94,26.82c-1.8,0-3.26,1.46-3.26,3.26v4.97c0,1.8,1.46,3.26,3.26,3.26h3.99
				c1.8,0,3.26-1.46,3.26-3.26v-4.97c0-1.8-1.46-3.26-3.26-3.26H52.94z" fill="#000000" class="color000000 svgShape"></path>
  </g>
  <g fill="#000000" class="color000000 svgShape">
    <circle cx="54.3" cy="31.93" r="2.09" fill="#ffffff" class="colorffffff svgShape"></circle>
    <path d="M54.3,34.52c-0.66,0-1.33-0.25-1.83-0.76c-0.49-0.49-0.76-1.14-0.76-1.83c0-0.69,0.27-1.34,0.76-1.83
					c1.01-1.01,2.65-1.01,3.66,0l0,0c1.01,1.01,1.01,2.65,0,3.66C55.63,34.27,54.97,34.52,54.3,34.52z M54.3,30.35
					c-0.41,0-0.81,0.15-1.12,0.46c-0.3,0.3-0.47,0.7-0.47,1.12c0,0.42,0.17,0.82,0.47,1.12c0.62,0.62,1.63,0.62,2.25,0
					c0.62-0.62,0.62-1.63,0-2.25l0,0C55.12,30.5,54.71,30.35,54.3,30.35z" fill="#000000" class="color000000 svgShape"></path>
    <g fill="#000000" class="color000000 svgShape">
      <path d="M57.66,35.79c-0.13,0-0.26-0.05-0.35-0.15l-1.88-1.88c-0.2-0.2-0.2-0.51,0-0.71s0.51-0.2,0.71,0l1.88,1.88
					c0.2,0.2,0.2,0.51,0,0.71C57.92,35.74,57.79,35.79,57.66,35.79z" fill="#000000" class="color000000 svgShape"></path>
    </g>
  </g>
  <g fill="#000000" class="color000000 svgShape">
    <path d="M17.79 29.43l1.21 4.95 1.22-4.95h1.18l1.23 4.92 1.28-4.92h1.05l-1.82 6.28h-1.1l-1.28-4.86-1.24 4.86h-1.1l-1.81-6.28H17.79zM26.45 29.43l1.21 4.95 1.22-4.95h1.18l1.23 4.92 1.28-4.92h1.05l-1.82 6.28h-1.1l-1.28-4.86-1.24 4.86h-1.1l-1.81-6.28H26.45zM35.12 29.43l1.21 4.95 1.22-4.95h1.18l1.23 4.92 1.28-4.92h1.05l-1.82 6.28h-1.1l-1.28-4.86-1.24 4.86h-1.1l-1.81-6.28H35.12z" fill="#000000" class="color000000 svgShape"></path>
  </g>
  <g fill="#000000" class="color000000 svgShape">
    <path fill="#fbbe8f" d="M57.46,44.14l-1.97,0.19l2.77,6.11c0.36,0.79,0,1.74-0.79,2.1l-1.65,0.75c-0.79,0.36-1.74,0-2.1-0.79
			l-2.77-6.11l-1.44,1.36c-1.06,1-2.79,0.17-2.67-1.29l0.83-10c0.1-1.24,1.53-1.88,2.52-1.14l8.07,5.97
			C59.43,42.15,58.91,44,57.46,44.14z" class="color8f90fb svgShape"></path>
    <path d="M55.16,53.92c-0.25,0-0.5-0.04-0.74-0.14c-0.52-0.2-0.94-0.58-1.17-1.09l-2.48-5.47l-0.93,0.88
			c-0.63,0.6-1.55,0.74-2.34,0.36c-0.79-0.38-1.25-1.19-1.17-2.06l0.83-10c0.06-0.76,0.52-1.41,1.22-1.73
			c0.7-0.32,1.49-0.23,2.1,0.22l8.07,5.97c0.7,0.52,1,1.4,0.77,2.24c-0.23,0.84-0.95,1.43-1.82,1.52l0,0l-1.28,0.12l2.48,5.47
			c0.23,0.5,0.25,1.07,0.05,1.59c-0.2,0.52-0.59,0.94-1.09,1.17l-1.65,0.75C55.74,53.86,55.45,53.92,55.16,53.92z M50.95,45.89
			c0.03,0,0.06,0,0.1,0.01c0.16,0.03,0.29,0.14,0.36,0.28l2.77,6.11c0.12,0.26,0.33,0.46,0.61,0.57c0.27,0.1,0.57,0.09,0.83-0.03
			l1.65-0.75c0.27-0.12,0.47-0.34,0.57-0.61s0.09-0.57-0.03-0.83l-2.77-6.11c-0.07-0.15-0.06-0.32,0.02-0.46s0.22-0.23,0.39-0.25
			l1.97-0.19c0.55-0.05,0.85-0.44,0.95-0.79c0.1-0.35,0.04-0.84-0.4-1.17l-8.07-5.97c-0.32-0.24-0.73-0.28-1.1-0.12
			c-0.36,0.17-0.6,0.5-0.63,0.9l-0.83,10c-0.05,0.55,0.28,0.91,0.61,1.07c0.33,0.16,0.82,0.19,1.22-0.19l1.44-1.36
			C50.7,45.93,50.82,45.89,50.95,45.89z M57.46,44.14L57.46,44.14L57.46,44.14z" fill="#000000" class="color000000 svgShape"></path>
  </g>
</svg>
