<svg xmlns="http://www.w3.org/2000/svg" viewBox="0 0 64 64" id="ServerHosting">
  <g fill="#ff7000" class="color000000 svgShape">
    <path fill="#ebaa78" d="M61 53v6a2.006 2.006 0 0 1-2 2H43a2.006 2.006 0 0 1-2-2V51H59A2.006 2.006 0 0 1 61 53zM61 9v6a2.006 2.006 0 0 1-2 2H43a2.006 2.006 0 0 1-2-2V7H59A2.006 2.006 0 0 1 61 9zM30 11H4a1 1 0 0 0-1 1V48a1 1 0 0 0 1 1H30a1 1 0 0 0 1-1V12A1 1 0 0 0 30 11zM17 44a3 3 0 1 1 3-3A3 3 0 0 1 17 44zM27 33H7V15H27zM61 29v6a2.006 2.006 0 0 1-2 2H43a2.006 2.006 0 0 1-2-2V27H59A2.006 2.006 0 0 1 61 29z" class="color78b9eb svgShape"></path>
    <path fill="#f06900" d="M43,18H59a3,3,0,0,0,3-3V9a3,3,0,0,0-3-3H54V5a3,3,0,0,0-3-3H41a1,1,0,0,0-1,1v7H36a1,1,0,0,0-1,1V29.184A3,3,0,0,0,33.184,31H32V12a2,2,0,0,0-2-2H4a2,2,0,0,0-2,2V48a2,2,0,0,0,2,2H5v2a1,1,0,0,0,1,1h6a1,1,0,0,0,1-1V50h8v2a1,1,0,0,0,1,1h6a1,1,0,0,0,1-1V50h1a2,2,0,0,0,2-2V33h1.184A3,3,0,0,0,35,34.816V56a1,1,0,0,0,1,1h4v2a3,3,0,0,0,3,3H59a3,3,0,0,0,3-3V53a3,3,0,0,0-3-3H54V49a3,3,0,0,0-3-3H41a1,1,0,0,0-1,1v8H37V34.816A3,3,0,0,0,38.816,33H40v2a3,3,0,0,0,3,3H59a3,3,0,0,0,3-3V29a3,3,0,0,0-3-3H54V25a3,3,0,0,0-3-3H41a1,1,0,0,0-1,1v8H38.816A3,3,0,0,0,37,29.184V12h3v3A3,3,0,0,0,43,18ZM11,51H7V50h4Zm16,0H23V50h4ZM4,48V12H30V48Zm56,5v6a1,1,0,0,1-1,1H43a1,1,0,0,1-1-1V52H59A1,1,0,0,1,60,53ZM42,48h9a1,1,0,0,1,1,1v1H42ZM60,29v6a1,1,0,0,1-1,1H43a1,1,0,0,1-1-1V28H59A1,1,0,0,1,60,29ZM42,24h9a1,1,0,0,1,1,1v1H42ZM60,9v6a1,1,0,0,1-1,1H43a1,1,0,0,1-1-1V8H59A1,1,0,0,1,60,9ZM42,4h9a1,1,0,0,1,1,1V6H42Z" class="color006df0 svgShape"></path>
    <path fill="#f06900" d="M17 37a4 4 0 1 0 4 4A4 4 0 0 0 17 37zm0 6a2 2 0 1 1 2-2A2 2 0 0 1 17 43zM27 14H7a1 1 0 0 0-1 1V33a1 1 0 0 0 1 1H27a1 1 0 0 0 1-1V15A1 1 0 0 0 27 14zM8 22H26v4H8zm0-6H26v4H8zM26 32H8V28H26z" class="color006df0 svgShape"></path>
    <rect width="2" height="2" x="22" y="17" fill="#f06900" class="color006df0 svgShape"></rect>
    <rect width="2" height="2" x="22" y="23" fill="#f06900" class="color006df0 svgShape"></rect>
    <rect width="2" height="2" x="22" y="29" fill="#f06900" class="color006df0 svgShape"></rect>
  </g>
</svg>
